<?xml version="1.0" standalone="no"?>
<!DOCTYPE svg PUBLIC "-//W3C//DTD SVG 20010904//EN"
 "http://www.w3.org/TR/2001/REC-SVG-20010904/DTD/svg10.dtd">
<svg version="1.0" xmlns="http://www.w3.org/2000/svg"
 width="401.000000pt" height="401.000000pt" viewBox="0 0 401.000000 401.000000"
 preserveAspectRatio="xMidYMid meet">

<g transform="translate(0.000000,401.000000) scale(0.100000,-0.100000)"
fill="#000000" stroke="none">
<path d="M1485 3789 c-84 -81 -130 -159 -140 -243 l-7 -53 -66 -32 c-159 -79
-332 -213 -443 -345 -33 -39 -79 -85 -102 -102 -23 -17 -47 -40 -53 -52 -6
-12 -18 -30 -27 -40 -10 -10 -17 -35 -17 -56 0 -54 -14 -72 -59 -80 -30 -4
-47 -15 -70 -45 -17 -21 -51 -48 -75 -60 -53 -25 -76 -54 -76 -99 0 -18 -7
-47 -16 -63 -10 -21 -13 -41 -8 -62 4 -18 8 -52 9 -77 1 -25 8 -70 15 -100 18
-74 17 -112 -5 -193 -15 -58 -17 -78 -7 -128 12 -67 84 -199 141 -258 22 -24
43 -64 62 -118 15 -45 44 -121 64 -168 21 -47 35 -88 33 -90 -2 -3 -62 11
-131 30 -210 58 -206 60 -199 -153 4 -148 5 -154 28 -169 15 -10 33 -13 50 -9
26 7 26 7 20 -41 -7 -53 -7 -48 0 -221 5 -112 3 -125 -15 -151 -26 -36 -27
-73 -2 -95 15 -13 45 -18 152 -22 136 -5 315 -16 535 -34 338 -27 395 -30 413
-21 11 7 21 7 28 0 12 -12 373 -32 430 -24 23 3 58 17 78 31 l36 24 62 -30
c69 -34 127 -38 192 -15 27 10 43 11 52 4 18 -16 280 -1 320 18 23 11 36 12
52 4 29 -16 125 -13 170 5 27 10 45 13 58 6 10 -5 56 -6 108 -1 90 8 134 11
495 29 179 9 196 12 213 31 22 27 22 44 -3 84 -24 39 -52 219 -43 282 3 27 1
48 -6 57 -7 8 -20 76 -29 150 -15 130 -15 139 2 191 18 51 18 56 2 80 -9 14
-26 25 -37 25 -27 0 -271 -70 -286 -82 -21 -17 -15 4 26 94 21 46 53 131 71
189 17 57 40 124 50 149 45 108 58 430 25 615 -35 204 -121 411 -253 610 -126
191 -367 405 -563 501 l-57 27 -4 56 c-6 81 -41 145 -123 227 -120 119 -158
113 -95 -16 31 -65 40 -96 40 -135 0 -28 -5 -56 -11 -62 -7 -7 -33 -4 -87 8
-280 68 -516 67 -786 -2 -64 -16 -81 -18 -88 -7 -17 25 0 118 37 198 59 124
31 134 -80 29z m68 13 c-12 -9 -42 -51 -68 -92 -33 -54 -45 -67 -40 -45 5 24
1 20 -22 -20 -23 -42 -27 -62 -28 -125 0 -68 3 -79 30 -114 19 -26 51 -49 90
-67 33 -16 53 -28 45 -28 -23 -1 -102 38 -128 62 -13 12 -33 40 -44 61 -27 52
-21 151 12 215 26 51 156 189 167 177 4 -4 -2 -15 -14 -24z m980 -34 c134
-130 162 -265 74 -364 -30 -35 -94 -74 -119 -74 -7 1 5 10 27 21 111 55 151
151 108 261 -24 64 -34 68 -28 13 l6 -50 -20 54 c-20 53 -80 155 -87 148 -3
-2 7 -29 21 -60 31 -67 43 -150 26 -171 -7 -8 -10 -23 -7 -33 6 -21 -8 -41
-51 -71 -32 -22 -117 -45 -128 -33 -4 3 -14 6 -23 6 -9 0 -18 9 -20 19 -3 14
0 17 12 13 8 -3 18 -2 21 3 4 6 -9 10 -27 11 -21 1 -6 6 40 15 89 16 131 39
155 84 21 41 16 100 -14 169 -10 24 -16 47 -13 52 3 5 1 9 -5 9 -6 0 -15 9
-21 20 -20 37 7 21 73 -42z m-1023 -82 c-16 -42 -12 -128 6 -155 25 -35 91
-61 156 -61 31 0 59 -4 62 -9 3 -5 0 -9 -7 -8 -36 1 -58 -4 -52 -13 3 -5 12
-7 20 -3 8 3 15 0 15 -7 0 -6 5 -8 10 -5 6 3 10 1 10 -4 0 -13 -12 -15 -105
-15 -55 -1 -73 3 -83 17 -7 9 -20 17 -27 17 -28 0 -47 58 -40 119 7 63 34 166
41 158 2 -2 0 -16 -6 -31z m800 -121 c137 -29 148 -33 129 -46 -16 -11 -62 -5
-179 24 -68 16 -118 20 -250 20 -149 1 -171 -2 -225 -22 -92 -36 -166 -47
-204 -31 -17 7 -30 14 -28 16 7 8 232 55 301 64 120 15 316 4 456 -25z m-295
-57 c17 0 58 4 93 8 48 5 73 2 108 -11 59 -22 50 -31 -11 -11 -32 11 -62 14
-98 9 -65 -8 -118 -8 -183 1 -40 5 -62 2 -99 -14 -51 -22 -82 -27 -50 -8 50
29 91 38 150 32 33 -3 74 -6 90 -6z m-672 -75 c-25 -9 -192 -109 -242 -146
-31 -23 -99 -82 -151 -133 -52 -50 -105 -94 -118 -97 -21 -5 -21 -3 8 33 45
57 180 181 256 235 36 26 107 69 158 96 76 41 92 46 95 32 2 -10 -1 -19 -6
-20z m787 27 c12 -8 11 -10 -7 -10 -13 0 -23 5 -23 10 0 13 11 13 30 0z m751
-111 c125 -83 313 -272 398 -399 198 -297 290 -623 266 -944 -4 -53 -8 -96
-10 -94 -2 2 -8 82 -15 178 -14 207 -35 329 -85 476 -72 216 -209 428 -386
599 -108 104 -190 165 -304 226 -44 23 -81 43 -83 44 -1 1 0 9 4 18 5 14 13
13 63 -13 32 -15 100 -57 152 -91z m-941 96 c11 -13 10 -14 -4 -9 -9 3 -16 10
-16 15 0 13 6 11 20 -6z m357 -27 c-3 -8 -6 -5 -6 6 -1 11 2 17 5 13 3 -3 4
-12 1 -19z m-382 -98 c3 -5 -1 -10 -9 -10 -9 0 -16 5 -16 10 0 6 4 10 9 10 6
0 13 -4 16 -10z m365 -43 c0 -5 -4 -5 -10 -2 -5 3 -10 14 -10 23 0 15 2 15 10
2 5 -8 10 -19 10 -23z m-405 3 c-3 -5 -1 -11 5 -15 5 -3 10 -11 10 -18 0 -7
-3 -8 -10 -1 -14 14 -22 56 -9 49 5 -4 7 -10 4 -15z m95 -15 c0 -5 -5 -3 -10
5 -5 8 -10 20 -10 25 0 6 5 3 10 -5 5 -8 10 -19 10 -25z m210 20 c0 -8 -4 -15
-10 -15 -5 0 -10 7 -10 15 0 8 5 15 10 15 6 0 10 -7 10 -15z m350 -10 c23 -9
28 -14 15 -14 -11 0 -31 6 -45 14 -31 18 -16 18 30 0z m-992 -6 c-29 -16 -98
-39 -98 -31 0 4 21 14 48 23 54 20 74 23 50 8z m899 5 c-3 -3 -12 -4 -19 -1
-8 3 -5 6 6 6 11 1 17 -2 13 -5z m-814 -11 c-7 -2 -19 -2 -25 0 -7 3 -2 5 12
5 14 0 19 -2 13 -5z m1193 -192 c-29 -57 -33 -106 -12 -156 19 -44 10 -44 -42
0 l-41 36 17 37 c9 20 31 58 49 83 18 26 33 55 33 65 0 11 4 30 8 44 6 22 7
19 10 -17 2 -29 -4 -56 -22 -92z m-988 99 c7 -11 9 -20 4 -20 -10 0 -32 22
-32 32 0 15 15 8 28 -12z m402 12 c0 -10 -22 -32 -32 -32 -5 0 -3 9 4 20 13
20 28 27 28 12z m320 5 c0 -2 -10 -12 -22 -23 l-23 -19 19 23 c18 21 26 27 26
19z m-1333 -99 c48 -67 61 -152 32 -227 -18 -48 -18 -56 -5 -82 8 -16 13 -29
11 -29 -2 0 -10 -3 -19 -6 -14 -5 -15 9 -11 134 l5 140 -36 70 c-24 46 -34 74
-28 83 7 10 10 8 12 -11 2 -14 20 -46 39 -72z m1140 40 c-3 -8 -6 -5 -6 6 -1
11 2 17 5 13 3 -3 4 -12 1 -19z m138 12 c-3 -5 -12 -10 -18 -10 -7 0 -6 4 3
10 19 12 23 12 15 0z m-498 -22 c-3 -8 -6 -5 -6 6 -1 11 2 17 5 13 3 -3 4 -12
1 -19z m60 2 c1 -11 -2 -22 -6 -25 -5 -2 -8 7 -8 20 0 30 12 34 14 5z m259
-28 c-11 -10 -15 4 -8 28 l7 25 3 -23 c2 -13 1 -26 -2 -30z m80 13 c21 -50 16
-67 -6 -20 -20 43 -23 55 -14 55 3 0 12 -16 20 -35z m-726 23 c0 -2 -7 -23
-15 -48 -13 -37 -14 -39 -10 -11 3 18 5 40 5 47 0 8 5 14 10 14 6 0 10 -1 10
-2z m785 -7 c-3 -6 9 -26 26 -45 45 -52 20 -44 -30 9 -42 44 -42 45 -16 45 14
0 24 -4 20 -9z m-827 -8 c-10 -2 -28 -2 -40 0 -13 2 -5 4 17 4 22 1 32 -1 23
-4z m372 -23 c0 -5 -2 -10 -4 -10 -3 0 -8 5 -11 10 -3 6 -1 10 4 10 6 0 11 -4
11 -10z m466 -51 c25 -49 15 -54 -16 -8 -16 24 -30 48 -30 53 0 14 30 -16 46
-45z m-959 -106 c14 -41 14 -45 -3 -64 l-19 -21 -6 24 c-4 12 -7 38 -8 56 -1
18 -12 55 -26 82 -14 27 -25 54 -25 61 0 21 72 -93 87 -138z m164 46 c-8 -91
-8 -92 -10 -28 -1 62 7 134 15 126 2 -2 0 -46 -5 -98z m52 23 c2 -32 1 -48 -4
-40 -5 7 -8 36 -8 63 1 60 6 50 12 -23z m602 58 c3 -5 1 -10 -4 -10 -6 0 -11
5 -11 10 0 6 2 10 4 10 3 0 8 -4 11 -10z m-1335 -25 c8 -7 28 -13 44 -13 20 0
37 -8 52 -26 13 -14 32 -26 42 -26 11 0 22 -7 26 -15 3 -8 11 -15 19 -15 21 0
49 -67 37 -90 -14 -26 -13 -565 1 -669 6 -46 7 -87 3 -91 -11 -11 -11 -10 -22
390 -6 207 -6 342 0 353 10 20 3 37 -17 37 -18 0 -35 -31 -35 -65 0 -20 -4
-26 -17 -23 -12 2 -18 13 -18 29 -1 22 -39 89 -51 89 -2 0 -13 -6 -24 -12 -16
-10 -25 -9 -50 5 -16 10 -34 15 -40 12 -5 -3 -26 -2 -45 4 -21 6 -37 6 -41 0
-3 -5 -13 -9 -22 -9 -10 0 -23 -9 -30 -20 -13 -22 -47 -27 -58 -9 -3 6 -17 8
-30 5 -16 -4 -24 -2 -25 6 0 7 -4 4 -9 -7 -4 -11 -6 -33 -3 -50 l5 -30 -16 29
c-22 38 -20 69 4 91 11 10 20 24 20 31 0 17 51 56 65 50 6 -2 17 5 23 15 9 13
24 19 51 19 21 0 53 6 71 14 35 14 65 11 90 -9z m920 -4 c-15 -30 -30 -35 -17
-6 7 14 16 25 20 25 4 0 3 -9 -3 -19z m244 -24 c1 -7 5 -18 10 -25 13 -22 0
-23 -19 -2 -11 12 -13 20 -6 20 8 0 9 5 1 19 -5 11 -10 23 -10 28 1 10 21 -25
24 -40z m476 1 c0 -5 -4 -8 -10 -8 -5 0 -10 10 -10 23 0 18 2 19 10 7 5 -8 10
-18 10 -22z m-1001 -52 c-9 -8 -10 -7 -5 7 3 10 7 31 8 45 1 22 2 21 5 -7 3
-19 -1 -38 -8 -45z m366 54 c3 -5 2 -10 -4 -10 -5 0 -13 5 -16 10 -3 6 -2 10
4 10 5 0 13 -4 16 -10z m603 -19 c71 -29 182 -102 182 -121 0 -16 -12 -11 -41
16 -40 38 -147 95 -239 127 -10 4 -9 6 5 6 11 0 53 -13 93 -28z m-709 -18
c-13 -16 -25 -30 -26 -32 -2 -2 -3 1 -3 7 0 13 35 52 47 52 3 0 -4 -12 -18
-27z m75 6 c-5 -8 33 -19 66 -19 20 0 22 2 10 11 -12 8 -10 9 7 4 12 -3 32 -1
43 5 32 17 39 2 10 -20 -32 -25 -125 -27 -158 -4 -29 20 -28 32 2 30 13 0 22
-4 20 -7z m1081 -96 c-6 -34 -15 -38 -50 -23 -19 7 -19 8 -2 15 21 9 46 54 49
87 1 13 3 8 5 -11 3 -19 2 -50 -2 -68z m-1415 39 c0 -5 -18 -18 -39 -31 -22
-12 -65 -49 -95 -83 -31 -34 -56 -58 -56 -54 0 24 68 100 121 135 65 44 69 45
69 33z m965 -4 c14 -6 25 -15 25 -20 0 -12 -6 -10 -42 12 -36 22 -25 27 17 8z
m-1281 -58 c-5 -35 -3 -55 7 -66 10 -13 10 -17 -2 -25 -25 -15 -49 -10 -49 11
0 18 41 130 48 130 1 0 0 -22 -4 -50z m527 -5 c-6 -35 -9 -41 -10 -20 -1 30 9
78 15 73 2 -2 -1 -26 -5 -53z m-868 23 c12 -6 36 -11 54 -10 34 3 63 -25 63
-63 0 -11 7 -28 14 -38 13 -16 15 -16 30 -2 9 9 16 23 16 30 0 8 4 16 9 20 6
3 9 -16 8 -45 -1 -34 -6 -49 -14 -46 -6 3 -14 0 -17 -7 -3 -9 -9 -7 -18 4 -7
9 -30 18 -51 21 l-37 4 0 -39 0 -39 36 7 c20 3 34 3 31 -2 -2 -4 -1 -35 3 -68
4 -33 5 -64 2 -70 -9 -16 -9 -45 0 -39 4 3 8 0 8 -5 0 -6 -5 -11 -11 -11 -8 0
-10 -23 -7 -75 3 -41 2 -76 -2 -77 -13 -5 -22 -48 -10 -48 7 0 5 -6 -4 -16
-20 -19 -81 -30 -90 -15 -4 6 -16 11 -27 11 -11 0 -23 8 -26 18 -4 9 -10 19
-14 22 -4 3 -10 17 -13 30 -13 62 -16 73 -25 84 -17 21 -10 89 11 104 19 14
25 42 8 42 -5 0 -7 13 -5 29 5 45 -4 71 -23 64 -10 -4 -14 -2 -9 3 9 9 13 10
74 13 34 1 42 16 35 59 -5 24 -6 24 -93 17 -92 -7 -96 -6 -91 37 1 3 -5 9 -13
12 -10 3 -15 -1 -15 -13 0 -11 6 -21 13 -24 8 -3 7 -10 -7 -26 -11 -11 -21
-19 -24 -17 -7 8 -13 107 -6 117 3 6 12 2 20 -8 12 -17 15 -16 43 13 16 18 27
35 23 39 -4 5 1 5 10 2 10 -3 20 -2 23 3 9 14 92 12 118 -2z m951 -17 c-2 -3
-12 3 -22 13 -16 17 -16 18 5 5 12 -7 20 -15 17 -18z m216 14 c-7 -8 -22 -14
-34 -14 -20 1 -20 2 -1 6 11 3 24 9 30 14 15 14 19 10 5 -6z m67 -27 c-3 -7
-5 -2 -5 12 0 14 2 19 5 13 2 -7 2 -19 0 -25z m809 -17 c68 -30 126 -81 156
-137 30 -56 44 -125 30 -150 -7 -12 -10 -2 -15 39 -14 142 -114 232 -285 257
-45 7 -82 15 -82 18 0 13 153 -8 196 -27z m-1614 -16 c1 -11 10 -23 18 -27 11
-5 9 -7 -7 -7 -19 -1 -23 4 -23 31 0 34 6 35 12 3z m1421 18 c-13 -2 -35 -2
-50 0 -16 2 -5 4 22 4 28 0 40 -2 28 -4z m87 -23 c22 -11 40 -23 40 -25 0 -3
-17 3 -37 13 -21 11 -45 22 -53 25 -10 4 -11 6 -2 6 7 1 31 -8 52 -19z m-2193
-311 c1 -171 -1 -309 -4 -305 -8 7 -24 597 -17 608 3 4 8 8 12 8 4 0 8 -140 9
-311z m-62 291 c3 -5 1 -10 -4 -10 -6 0 -11 5 -11 10 0 6 2 10 4 10 3 0 8 -4
11 -10z m2486 -7 c13 -16 12 -17 -3 -4 -17 13 -22 21 -14 21 2 0 10 -8 17 -17z
m-260 -19 c20 -7 39 -46 39 -77 -1 -20 -3 -19 -30 13 -16 19 -30 31 -30 25 -2
-13 -18 26 -19 43 -1 8 5 11 12 8 6 -3 19 -9 28 -12z m129 -16 c0 -6 -7 -5
-15 2 -8 7 -15 17 -15 22 0 6 7 5 15 -2 8 -7 15 -17 15 -22z m-2431 20 c-2 -2
-24 -21 -48 -43 l-44 -40 27 37 c15 20 33 39 39 42 13 5 33 8 26 4z m2646 -77
c-5 -29 -9 -32 -16 -19 -6 11 -5 31 3 58 10 32 14 37 16 20 2 -13 1 -39 -3
-59z m-1874 44 c-41 -13 -87 -33 -102 -44 -22 -17 -28 -18 -33 -6 -7 18 39 44
109 61 86 21 104 14 26 -11z m1468 -4 c32 -30 40 -51 19 -46 -41 8 -77 29 -81
45 -10 40 20 40 62 1z m-2174 9 c3 -5 2 -10 -4 -10 -5 0 -13 5 -16 10 -3 6 -2
10 4 10 5 0 13 -4 16 -10z m760 -19 c-16 -4 -45 -15 -62 -25 -18 -9 -33 -14
-33 -11 0 10 76 44 100 44 23 -1 22 -2 -5 -8z m1305 -46 c0 -21 -17 -18 -30 4
-15 28 -13 33 10 21 11 -6 20 -17 20 -25z m-2157 8 c-7 -2 -19 -2 -25 0 -7 3
-2 5 12 5 14 0 19 -2 13 -5z m597 -220 c0 -119 3 -228 7 -241 4 -16 2 -23 -6
-21 -11 4 -18 112 -21 334 -2 153 -2 157 9 150 6 -3 10 -100 11 -222z m-660
205 c-14 -6 -42 -17 -63 -26 -26 -11 -39 -23 -43 -41 -9 -43 -12 -47 -13 -21
-1 39 25 68 77 84 55 17 78 19 42 4z m185 1 c11 -17 -1 -21 -15 -4 -8 9 -8 15
-2 15 6 0 14 -5 17 -11z m741 -4 c-20 -15 -36 -19 -36 -10 0 5 38 23 50 24 3
0 -4 -6 -14 -14z m1342 -23 c20 -31 1 -27 -22 5 -12 16 -14 24 -6 21 7 -2 20
-14 28 -26z m-2171 -14 c-3 -7 -5 -2 -5 12 0 14 2 19 5 13 2 -7 2 -19 0 -25z
m182 -310 c0 -71 -3 -128 -8 -128 -4 0 -9 87 -10 192 -1 106 -4 203 -8 215 -3
13 -1 31 3 40 10 22 21 -135 23 -319z m1896 322 c3 -5 1 -10 -4 -10 -6 0 -11
5 -11 10 0 6 2 10 4 10 3 0 8 -4 11 -10z m-1780 -40 c3 -5 2 -10 -4 -10 -5 0
-13 5 -16 10 -3 6 -2 10 4 10 5 0 13 -4 16 -10z m1640 0 c3 -5 2 -10 -4 -10
-5 0 -13 5 -16 10 -3 6 -2 10 4 10 5 0 13 -4 16 -10z m-855 -20 c-8 -5 -24 -9
-35 -9 l-20 0 20 9 c11 5 27 9 35 9 13 1 13 0 0 -9z m793 -28 c9 -13 -52 -7
-65 7 -8 9 -8 11 -1 7 6 -3 14 -2 18 4 6 10 39 -1 48 -18z m813 -9 c-4 -4 -12
-1 -19 7 -9 10 -9 11 1 6 7 -4 12 -2 13 6 0 11 2 11 6 0 3 -7 2 -16 -1 -19z
m-1046 13 c0 -11 -19 -15 -25 -6 -3 5 1 10 9 10 9 0 16 -2 16 -4z m-1856 -36
c-10 -16 -19 -28 -21 -26 -6 6 20 56 29 56 5 0 1 -13 -8 -30z m231 21 c3 -5 1
-12 -5 -16 -5 -3 -10 1 -10 9 0 18 6 21 15 7z m283 -9 c6 -18 -15 -14 -22 4
-4 10 -1 14 6 12 6 -2 14 -10 16 -16z m2361 -6 c40 -21 110 -101 133 -154 11
-25 22 -72 23 -104 1 -35 8 -65 17 -76 20 -23 41 -63 35 -68 -5 -6 -17 10 -51
70 -16 27 -23 45 -16 41 10 -6 11 3 6 41 -13 88 -57 156 -155 237 -37 30 -34
34 8 13z m-2829 -16 c0 -5 -2 -10 -4 -10 -3 0 -8 5 -11 10 -3 6 -1 10 4 10 6
0 11 -4 11 -10z m1285 -10 c3 -5 -3 -10 -14 -10 -12 0 -24 0 -28 -1 -4 0 -9 4
-11 10 -5 14 45 15 53 1z m715 0 c13 -9 13 -10 0 -10 -8 0 -22 5 -30 10 -13 9
-13 10 0 10 8 0 22 -5 30 -10z m8 -29 c19 -12 -30 -23 -64 -15 -31 8 -14 24
26 24 14 0 31 -4 38 -9z m787 -61 c13 -26 13 -30 1 -30 -8 0 -21 14 -30 30
-12 25 -12 30 0 30 7 0 20 -13 29 -30z m-2846 -18 c-11 -18 -10 -27 4 -57 9
-20 17 -46 17 -58 0 -12 9 -39 20 -60 25 -46 19 -49 -9 -3 -12 18 -21 45 -21
60 0 15 -7 40 -15 57 -17 32 -11 109 7 91 6 -6 5 -17 -3 -30z m241 28 c0 -5
-4 -10 -10 -10 -5 0 -10 5 -10 10 0 6 5 10 10 10 6 0 10 -4 10 -10z m1077 -6
c-3 -3 -12 -4 -19 -1 -8 3 -5 6 6 6 11 1 17 -2 13 -5z m-74 -28 c26 -10 47
-22 47 -27 0 -5 -11 -4 -25 1 -38 15 -85 40 -85 46 0 3 3 4 8 2 4 -1 28 -11
55 -22z m-143 4 c0 -5 -5 -10 -11 -10 -5 0 -7 5 -4 10 3 6 8 10 11 10 2 0 4
-4 4 -10z m785 0 c-3 -5 -10 -10 -16 -10 -5 0 -9 5 -9 10 0 6 7 10 16 10 8 0
12 -4 9 -10z m-258 -36 c-3 -3 -12 -4 -19 -1 -8 3 -5 6 6 6 11 1 17 -2 13 -5z
m914 -11 c0 -5 2 -18 3 -31 3 -28 -10 -38 -30 -22 -15 14 -15 40 1 52 13 10
25 10 26 1z m211 -34 l-9 -24 -8 24 c-5 16 -3 26 6 32 18 11 22 -1 11 -32z
m-173 -28 c-7 -23 -18 -46 -24 -51 -7 -6 -3 14 9 44 24 63 33 67 15 7z m-795
-42 l47 -52 -32 -33 c-18 -18 -36 -31 -41 -28 -5 3 -7 0 -6 -8 2 -7 -3 -12
-10 -10 -8 1 -11 -2 -8 -7 3 -5 -1 -14 -9 -21 -12 -10 -18 -10 -30 0 -8 7 -15
9 -15 4 0 -5 -16 -9 -36 -10 -20 0 -40 -7 -45 -15 -5 -8 -9 -9 -10 -4 0 6 -4
-1 -8 -14 -7 -27 -31 -41 -27 -17 1 9 17 30 34 47 36 35 37 38 20 74 -11 24
-8 30 47 85 33 33 65 60 71 60 6 0 33 -23 58 -51z m-1474 1 c-6 -11 -16 -20
-22 -20 -6 0 -3 9 7 20 10 11 20 20 22 20 2 0 -1 -9 -7 -20z m2144 -6 c3 -8 2
-12 -4 -9 -6 3 -10 10 -10 16 0 14 7 11 14 -7z m-1010 -50 c-6 -33 9 -74 26
-74 6 0 10 10 11 23 0 18 3 16 15 -12 18 -39 11 -82 -17 -107 -19 -17 -19 -16
-13 14 6 31 -9 46 -19 20 -3 -7 -6 -4 -6 8 -1 11 -8 29 -16 40 -14 19 -14 19
-15 -2 0 -23 -23 -48 -33 -37 -7 7 -11 -20 -7 -47 2 -12 -3 -11 -19 4 -24 22
-27 68 -7 105 l13 23 6 -22 c8 -30 27 -16 27 19 0 16 9 40 20 54 11 14 20 31
20 39 0 10 3 9 10 -2 5 -8 7 -29 4 -46z m-245 -5 c23 -29 41 -54 41 -58 0 -10
-44 -27 -60 -23 -8 2 -28 24 -43 50 l-28 47 39 -44 c23 -26 43 -41 50 -37 18
11 15 26 -11 60 -55 73 -45 77 12 5z m-494 32 c15 -6 7 -9 -30 -14 -28 -3 -63
-4 -80 -3 -16 2 -50 4 -75 5 -38 3 -41 4 -20 11 32 10 179 11 205 1z m-421
-22 c29 -6 29 -7 5 -8 -14 -1 -34 6 -45 15 -10 8 -13 12 -5 8 8 -4 28 -11 45
-15z m-245 -77 c2 -87 -5 -77 -13 18 -3 43 -2 69 3 62 4 -8 9 -43 10 -80z
m2458 82 c-3 -3 -12 -4 -19 -1 -8 3 -5 6 6 6 11 1 17 -2 13 -5z m-2110 -63
c-13 -49 -21 -45 -22 13 0 38 2 43 16 35 14 -7 15 -14 6 -48z m310 35 c-48
-11 -54 -26 -11 -26 32 0 39 -17 12 -26 -21 -7 -20 -9 12 -14 20 -4 -28 -9
-112 -11 -80 -2 -144 -1 -141 4 2 4 32 8 66 8 34 1 53 3 42 6 -11 2 -27 6 -35
9 -26 9 10 24 58 24 26 0 41 4 37 10 -3 6 -45 11 -93 12 l-87 2 90 5 c50 3
117 7 150 7 l60 2 -48 -12z m101 8 c-4 -3 -2 -19 2 -35 5 -16 5 -31 1 -33 -4
-3 -12 13 -18 35 -9 33 -8 39 5 39 8 0 13 -3 10 -6z m-435 -94 c17 0 19 -2 8
-9 -25 -16 -51 6 -51 43 0 49 15 54 18 7 3 -35 7 -41 25 -41z m2490 36 c4 -10
1 -13 -9 -9 -15 6 -19 23 -5 23 5 0 11 -7 14 -14z m-2837 -13 c-17 -44 -18
-133 -2 -182 23 -70 81 -166 130 -214 36 -36 37 -38 8 -18 -40 28 -108 127
-139 201 -30 73 -30 230 -1 230 6 0 7 -8 4 -17z m1264 -75 c0 -19 -19 -5 -34
25 -8 17 -16 28 -16 24 0 -5 -5 -5 -10 -2 -6 4 -7 11 -3 17 6 11 63 -47 63
-64z m-857 55 c-7 -2 -19 -2 -25 0 -7 3 -2 5 12 5 14 0 19 -2 13 -5z m212 -13
c19 -8 18 -9 -5 -11 -14 -1 -2 -5 25 -9 43 -6 38 -7 -40 -8 -61 -1 -85 1 -75
8 13 8 12 10 -5 11 -11 1 0 5 25 9 25 4 47 7 50 8 3 0 14 -3 25 -8z m2210 0
c3 -6 -1 -7 -9 -4 -18 7 -21 14 -7 14 6 0 13 -4 16 -10z m171 -45 c9 -39 0
-30 -15 15 -6 19 -7 30 -2 25 5 -6 13 -23 17 -40z m-2518 18 c-10 -2 -28 -2
-40 0 -13 2 -5 4 17 4 22 1 32 -1 23 -4z m2356 -10 c4 -10 4 -14 0 -10 -4 4
-22 -4 -40 -18 -34 -26 -59 -32 -69 -15 -6 10 45 40 70 40 8 0 15 5 15 10 0
16 17 11 24 -7z m282 -50 c10 -37 0 -36 -17 1 -13 27 -13 33 -2 29 7 -3 16
-16 19 -30z m-1606 12 c0 -8 -3 -14 -7 -14 -5 1 -15 1 -23 0 -13 -1 -13 -2 0
-11 12 -8 10 -10 -10 -9 l-25 0 30 24 c35 29 35 29 35 10z m1225 -39 c-42 -13
-59 -11 -35 4 8 6 29 9 45 9 28 -1 28 -1 -10 -13z m-1285 -31 c-18 -21 -80
-58 -87 -52 -11 12 -32 -21 -26 -42 7 -26 -5 -27 -24 -3 -13 15 -14 14 -10
-13 5 -28 4 -29 -9 -10 -14 18 -12 23 23 52 21 18 43 33 48 33 6 0 16 9 23 21
9 14 19 18 32 14 12 -4 20 -2 20 4 0 6 5 11 11 11 8 0 8 -5 -1 -15z m1243 -12
c-7 -2 -21 -2 -30 0 -10 3 -4 5 12 5 17 0 24 -2 18 -5z m445 -103 l-1 -35 -7
40 c-4 22 -10 56 -14 75 -6 35 -5 34 8 -5 8 -22 14 -56 14 -75z m-1698 66 c0
-2 -7 -7 -16 -10 -8 -3 -12 -2 -9 4 6 10 25 14 25 6z m32 -35 c-1 -7 1 -10 6
-7 5 3 24 -8 43 -24 34 -28 34 -29 15 -47 -17 -16 -18 -16 -7 0 11 14 11 20 1
32 -7 9 -19 14 -27 11 -7 -3 -13 -1 -13 4 0 6 -5 10 -11 10 -6 0 -8 -7 -5 -16
5 -14 4 -15 -9 -4 -10 8 -13 20 -9 34 6 18 5 19 -9 8 -9 -8 -18 -9 -21 -3 -4
5 2 12 11 14 25 6 38 2 35 -12z m1257 -15 c-15 -13 -49 -25 -49 -17 0 5 8 12
18 14 24 6 36 8 31 3z m-1468 -25 c-9 -6 -11 -16 -7 -27 6 -15 4 -16 -5 -7
-14 14 -5 43 13 43 10 0 9 -3 -1 -9z m1409 -5 c0 -2 -7 -7 -16 -10 -8 -3 -12
-2 -9 4 6 10 25 14 25 6z m-1160 -26 c0 -5 -2 -10 -4 -10 -3 0 -8 5 -11 10 -3
6 -1 10 4 10 6 0 11 -4 11 -10z m1620 -13 c0 -2 -10 -12 -22 -23 l-23 -19 19
23 c18 21 26 27 26 19z m-2263 -33 c-3 -3 -12 -4 -19 -1 -8 3 -5 6 6 6 11 1
17 -2 13 -5z m76 -1 c-7 -2 -19 -2 -25 0 -7 3 -2 5 12 5 14 0 19 -2 13 -5z
m50 0 c-7 -2 -19 -2 -25 0 -7 3 -2 5 12 5 14 0 19 -2 13 -5z m1017 3 c0 -2 -7
-7 -16 -10 -8 -3 -12 -2 -9 4 6 10 25 14 25 6z m-1226 -15 c3 -5 -8 -11 -26
-13 -28 -5 -29 -4 -13 9 22 15 32 16 39 4z m-144 -5 c0 -2 -8 -10 -17 -17 -16
-13 -17 -12 -4 4 13 16 21 21 21 13z m485 -14 c-3 -3 -11 0 -18 7 -9 10 -8 11
6 5 10 -3 15 -9 12 -12z m-235 -2 c13 -9 13 -10 0 -10 -8 0 -22 5 -30 10 -13
9 -13 10 0 10 8 0 22 -5 30 -10z m-184 -8 c-7 -12 5 -26 34 -39 16 -8 19 -12
9 -12 -21 -1 -71 38 -64 50 4 5 11 9 16 9 6 0 8 -4 5 -8z m2369 -41 c-19 -75
-78 -226 -83 -213 -2 7 -7 10 -12 7 -12 -7 62 197 83 228 9 15 19 27 21 27 2
0 -2 -22 -9 -49z m-2230 29 c-3 -5 -12 -10 -20 -10 -8 0 -17 5 -20 10 -4 6 5
10 20 10 15 0 24 -4 20 -10z m2167 -30 c-16 -22 -42 -50 -58 -62 -16 -13 -5 4
26 39 30 35 57 63 58 63 2 0 -9 -18 -26 -40z m-655 24 c-3 -3 -12 -4 -19 -1
-8 3 -5 6 6 6 11 1 17 -2 13 -5z m-2101 -45 c3 -6 -5 -3 -20 6 -14 10 -26 19
-26 22 0 7 39 -17 46 -28z m1129 21 c8 -13 -5 -13 -25 0 -13 8 -13 10 2 10 9
0 20 -4 23 -10z m1065 0 c13 -8 13 -10 -2 -10 -9 0 -20 5 -23 10 -8 13 5 13
25 0z m-2220 -109 c18 -47 48 -117 67 -154 29 -58 31 -68 16 -65 -21 4 -71
102 -119 235 -29 80 -31 91 -15 81 10 -6 33 -50 51 -97z m297 103 c-3 -3 -12
-4 -19 -1 -8 3 -5 6 6 6 11 1 17 -2 13 -5z m401 -5 c-18 -7 -33 -7 -45 0 -14
8 -9 10 27 10 42 -1 43 -1 18 -10z m229 5 c-3 -3 -12 -4 -19 -1 -8 3 -5 6 6 6
11 1 17 -2 13 -5z m-727 -19 c-14 -8 -29 -14 -35 -14 -5 0 1 6 15 14 14 8 30
14 35 14 6 0 -1 -6 -15 -14z m877 9 c-3 -3 -12 -4 -19 -1 -8 3 -5 6 6 6 11 1
17 -2 13 -5z m406 -1 c-7 -2 -21 -2 -30 0 -10 3 -4 5 12 5 17 0 24 -2 18 -5z
m-893 -13 c0 -5 -2 -10 -4 -10 -3 0 -8 5 -11 10 -3 6 -1 10 4 10 6 0 11 -4 11
-10z m227 -3 c0 -9 -11 -11 -36 -8 l-36 5 35 7 c19 3 35 7 36 8 0 0 1 -5 1
-12z m1090 7 c-3 -3 -12 -4 -19 -1 -8 3 -5 6 6 6 11 1 17 -2 13 -5z m-1277
-14 c0 -5 -4 -10 -10 -10 -5 0 -10 5 -10 10 0 6 5 10 10 10 6 0 10 -4 10 -10z
m1677 4 c-3 -3 -12 -4 -19 -1 -8 3 -5 6 6 6 11 1 17 -2 13 -5z m-897 -14 c0
-5 -4 -10 -9 -10 -6 0 -13 5 -16 10 -3 6 1 10 9 10 9 0 16 -4 16 -10z m-733
-12 c15 -6 34 -12 42 -12 8 -1 16 -7 19 -14 3 -10 -3 -11 -25 -6 -15 4 -29 11
-31 16 -2 4 -12 8 -23 8 -10 0 -19 5 -19 10 0 13 3 13 37 -2z m1096 -10 c4
-13 1 -26 -6 -30 -7 -4 -8 -8 -2 -8 5 0 -8 -9 -29 -21 -21 -11 -41 -18 -43
-15 -3 3 5 10 19 15 33 12 51 37 45 61 -3 11 -2 20 3 20 4 0 10 -10 13 -22z
m594 16 c-3 -3 -12 -4 -19 -1 -8 3 -5 6 6 6 11 1 17 -2 13 -5z m-1180 -10 c-3
-3 -12 -4 -19 -1 -8 3 -5 6 6 6 11 1 17 -2 13 -5z m1243 -18 c0 -2 -9 -2 -20
1 -11 3 -20 9 -20 15 0 5 9 4 20 -2 11 -6 20 -12 20 -14z m-2135 -13 c-44 -14
-93 -35 -110 -47 -16 -11 -34 -21 -40 -21 -25 0 -16 -41 16 -69 27 -23 28 -26
7 -13 -15 10 -29 17 -32 17 -2 0 4 -28 15 -62 22 -73 18 -91 -5 -21 -26 80
-29 133 -9 155 25 28 84 56 151 72 90 22 94 17 7 -11z m655 17 c0 -5 -7 -7
-15 -4 -8 4 -15 8 -15 10 0 2 7 4 15 4 8 0 15 -4 15 -10z m1058 -4 c32 -18 84
-31 128 -34 34 -3 108 -66 121 -103 l12 -34 -19 25 c-11 14 -25 30 -30 35 -6
6 -19 18 -28 28 -20 21 -39 23 -22 2 16 -20 -143 48 -177 75 -30 23 -22 26 15
6z m459 -2 c-3 -3 -12 -4 -19 -1 -8 3 -5 6 6 6 11 1 17 -2 13 -5z m-242 -14
c3 -5 2 -10 -4 -10 -5 0 -13 5 -16 10 -3 6 -2 10 4 10 5 0 13 -4 16 -10z m329
-16 c17 -7 24 -13 16 -13 -8 0 -33 9 -55 20 -43 20 -11 15 39 -7z m-1734 6
c12 -8 11 -10 -7 -10 -12 0 -25 5 -28 10 -8 13 15 13 35 0z m730 4 c0 -8 -19
-13 -24 -6 -3 5 1 9 9 9 8 0 15 -2 15 -3z m-120 -29 c7 -9 8 -15 2 -15 -5 0
-12 7 -16 15 -3 8 -4 15 -2 15 2 0 9 -7 16 -15z m56 -13 c-9 -9 -37 8 -31 18
5 8 11 7 21 -1 8 -6 12 -14 10 -17z m799 18 c4 -6 10 -8 15 -5 5 3 11 1 14 -4
12 -19 -12 -20 -34 -1 -13 11 -18 20 -12 20 6 0 14 -5 17 -10z m60 -8 c-3 -3
-11 0 -18 7 -9 10 -8 11 6 5 10 -3 15 -9 12 -12z m-1292 1 c-7 -2 -19 -2 -25
0 -7 3 -2 5 12 5 14 0 19 -2 13 -5z m90 0 c-7 -2 -21 -2 -30 0 -10 3 -4 5 12
5 17 0 24 -2 18 -5z m57 -3 c0 -5 -4 -10 -10 -10 -5 0 -10 5 -10 10 0 6 5 10
10 10 6 0 10 -4 10 -10z m-172 -14 c23 0 42 -3 42 -6 0 -14 -38 -36 -51 -29
-25 13 -83 37 -104 43 -11 3 0 3 25 -1 25 -3 64 -6 88 -7z m222 4 c-19 -13
-30 -13 -30 0 0 6 10 10 23 10 18 0 19 -2 7 -10z m350 0 c0 -5 -7 -7 -15 -4
-8 4 -15 8 -15 10 0 2 7 4 15 4 8 0 15 -4 15 -10z m420 -10 c0 -6 11 -8 24 -6
14 2 41 -4 62 -14 20 -11 40 -17 44 -15 10 6 90 -53 90 -67 0 -6 -9 -3 -21 8
-12 10 -24 18 -28 18 -7 -1 -35 10 -97 38 -22 10 -47 18 -56 18 -9 0 -21 7
-28 15 -9 10 -9 15 -1 15 6 0 11 -5 11 -10z m-370 -20 c-8 -6 -24 -9 -35 -9
-15 0 -13 4 10 14 32 14 49 10 25 -5z m-297 -8 c15 -2 35 2 45 9 15 13 16 12
3 -3 -19 -25 2 -31 98 -27 60 3 74 1 62 -7 -20 -14 -161 -17 -161 -4 0 6 -3 9
-7 8 -16 -3 -92 23 -99 34 -5 8 -1 9 12 3 10 -4 31 -10 47 -13z m187 4 c0 -2
-7 -7 -16 -10 -8 -3 -12 -2 -9 4 6 10 25 14 25 6z m754 -35 c-2 -3 -12 3 -22
13 -16 17 -16 18 5 5 12 -7 20 -15 17 -18z m362 -13 c-4 -43 -27 -130 -33
-124 -4 3 6 50 24 110 3 13 1 16 -7 11 -8 -5 -7 0 2 14 17 28 18 27 14 -11z
m-1656 -71 c0 -10 -56 45 -80 78 -7 11 7 0 33 -25 26 -24 47 -48 47 -53z
m1752 55 c-14 -38 -45 -82 -53 -76 -5 3 -9 0 -9 -7 0 -7 -2 -10 -5 -7 -11 10
48 116 61 111 7 -3 10 -12 6 -21z m-1712 -23 c0 -5 -4 -9 -10 -9 -5 0 -10 7
-10 16 0 8 5 12 10 9 6 -3 10 -10 10 -16z m1550 7 c0 -2 -7 -7 -16 -10 -8 -3
-12 -2 -9 4 6 10 25 14 25 6z m-2340 -16 c8 -5 11 -10 5 -10 -5 0 -17 5 -25
10 -8 5 -10 10 -5 10 6 0 17 -5 25 -10z m60 -20 c8 -5 11 -10 5 -10 -5 0 -17
5 -25 10 -8 5 -10 10 -5 10 6 0 17 -5 25 -10z m2195 0 c-3 -5 -14 -10 -23 -9
-14 0 -13 2 3 9 27 11 27 11 20 0z m-2585 -60 l135 -38 3 -87 3 -88 -25 31
c-14 16 -34 32 -45 35 -24 6 -28 -11 -24 -128 2 -49 3 -101 3 -115 -5 -257 -4
-278 13 -304 l17 -26 -90 0 c-49 0 -90 2 -90 5 0 3 7 16 15 29 12 17 15 53 14
157 0 74 0 148 0 164 8 222 7 246 -16 251 -27 7 -40 0 -63 -39 l-19 -30 -3
116 c-3 113 -2 117 17 110 11 -3 81 -23 155 -43z m444 41 c4 -5 -3 -7 -14 -4
-23 6 -26 13 -6 13 8 0 17 -4 20 -9z m176 5 c0 -2 -7 -7 -16 -10 -8 -3 -12 -2
-9 4 6 10 25 14 25 6z m1574 -12 c9 -3 14 -10 11 -15 -7 -10 -35 0 -35 12 0
11 3 11 24 3z m323 0 c-3 -3 -12 -4 -19 -1 -8 3 -5 6 6 6 11 1 17 -2 13 -5z
m577 -33 c-11 -33 -11 -61 2 -183 9 -78 22 -153 30 -165 9 -14 11 -30 6 -43
-12 -32 20 -262 41 -293 9 -14 17 -29 17 -32 0 -3 -38 -5 -85 -5 -83 0 -85 1
-75 20 6 12 10 42 8 68 -3 46 -4 47 -38 50 -24 3 -38 -2 -47 -14 -15 -21 -17
-82 -3 -104 14 -22 -7 -30 -82 -30 l-66 0 14 29 c19 39 54 272 43 292 -5 10
-4 20 3 27 12 12 47 220 47 285 1 21 -4 48 -11 60 -11 21 -10 21 7 7 17 -13
18 -13 13 1 -5 14 10 21 80 42 116 34 112 34 96 -12z m-1079 19 c3 -5 -1 -10
-9 -10 -9 0 -16 5 -16 10 0 6 4 10 9 10 6 0 13 -4 16 -10z m-1458 -6 c-3 -3
-12 -4 -19 -1 -8 3 -5 6 6 6 11 1 17 -2 13 -5z m240 -11 c-9 -9 -20 -13 -24
-9 -4 4 -1 11 7 16 25 16 35 11 17 -7z m-144 -10 c-7 -2 -21 -2 -30 0 -10 3
-4 5 12 5 17 0 24 -2 18 -5z m147 -24 c15 -5 1 -6 -35 -2 -33 3 -69 9 -80 14
-25 10 80 -1 115 -12z m190 5 c0 -2 -12 -4 -27 -4 -21 0 -24 3 -14 9 13 8 41
5 41 -5z m910 -4 c0 -5 -4 -10 -10 -10 -5 0 -10 5 -10 10 0 6 5 10 10 10 6 0
10 -4 10 -10z m-955 -19 l40 -9 -45 0 c-25 0 -58 4 -75 8 l-30 8 35 0 c19 1
53 -3 75 -7z m1841 -41 c-18 -46 -23 -268 -6 -300 7 -13 7 -21 0 -25 -6 -4
-10 -70 -10 -166 l0 -159 -48 0 -48 0 -44 148 c-23 81 -47 151 -51 156 -16 18
-10 -241 5 -279 14 -34 14 -35 -7 -35 -12 0 -46 -3 -74 -6 l-53 -7 15 30 c12
25 15 77 12 299 -1 148 -6 277 -10 286 -7 14 -2 19 30 27 89 23 93 24 93 9 0
-21 70 -262 78 -270 13 -13 7 255 -5 277 -10 18 -6 21 60 40 40 12 74 20 76
18 2 -1 -4 -20 -13 -43z m-2550 26 c27 -8 68 -20 92 -26 99 -26 138 -98 130
-245 -4 -75 -8 -88 -31 -113 l-26 -27 26 -95 c14 -52 33 -114 44 -138 l19 -42
-38 0 c-82 0 -83 2 -123 173 -13 53 -27 97 -31 97 -15 0 -9 -188 7 -227 l15
-36 -37 7 c-21 3 -57 6 -81 6 l-43 0 16 30 c18 35 21 249 4 281 -7 15 -7 24 1
34 13 16 10 287 -4 318 -10 21 -4 21 60 3z m1257 7 c-7 -2 -19 -2 -25 0 -7 3
-2 5 12 5 14 0 19 -2 13 -5z m540 0 c-7 -2 -21 -2 -30 0 -10 3 -4 5 12 5 17 0
24 -2 18 -5z m-1010 -10 c-7 -2 -19 -2 -25 0 -7 3 -2 5 12 5 14 0 19 -2 13 -5z
m216 -9 c8 -7 -134 -2 -164 6 -16 4 13 5 65 2 52 -3 97 -6 99 -8z m719 9 c-16
-2 -40 -2 -55 0 -16 2 -3 4 27 4 30 0 43 -2 28 -4z m-178 -13 c-41 -4 -106 -7
-145 -7 l-70 1 75 6 c41 4 107 6 145 7 l70 0 -75 -7z m-452 -7 c-10 -2 -26 -2
-35 0 -10 3 -2 5 17 5 19 0 27 -2 18 -5z m130 0 c-21 -2 -55 -2 -75 0 -21 2
-4 4 37 4 41 0 58 -2 38 -4z m85 0 c-7 -2 -21 -2 -30 0 -10 3 -4 5 12 5 17 0
24 -2 18 -5z m-918 -63 c58 -11 108 -20 111 -20 2 0 4 -37 4 -82 l0 -83 -23
27 c-13 16 -37 29 -59 32 l-38 7 0 -64 c0 -64 0 -65 32 -71 22 -4 37 -1 50 10
17 16 18 14 16 -65 -1 -44 -4 -81 -6 -81 -3 0 -10 6 -16 14 -6 8 -24 16 -41
18 l-30 3 -3 -72 -3 -73 45 0 c37 0 48 5 64 28 l20 27 -5 -85 c-3 -47 -6 -86
-7 -87 -3 -4 -226 14 -232 19 -3 4 -1 15 5 26 14 26 14 237 1 262 -7 13 -7 21
0 25 17 10 13 240 -5 281 -13 32 -13 35 0 30 8 -3 62 -14 120 -26z m1758 -21
c15 -11 31 -38 37 -59 11 -39 15 -303 6 -393 -8 -88 -58 -143 -136 -152 -55
-6 -87 9 -117 54 -20 29 -23 47 -23 122 0 48 -5 91 -10 94 -7 4 -7 12 0 25 5
10 10 58 10 107 1 158 46 214 181 222 15 0 38 -8 52 -20z m-1515 -15 c47 -6
52 -9 52 -31 0 -14 7 -51 15 -84 8 -32 15 -62 14 -66 -1 -4 2 -19 8 -33 6 -14
12 -31 15 -39 5 -16 58 176 58 211 0 22 3 23 62 20 89 -4 92 -6 73 -41 -18
-36 -22 -246 -5 -256 8 -5 7 -11 0 -20 -13 -16 -9 -227 4 -260 l9 -20 -17 20
c-10 11 -15 14 -11 8 5 -10 -10 -13 -60 -13 l-66 0 16 30 c12 23 15 57 13 148
l-3 117 -33 -120 c-18 -66 -36 -127 -38 -135 -3 -8 -21 45 -39 118 -18 73 -35
136 -39 139 -13 14 -6 -218 8 -252 l15 -35 -43 0 c-24 0 -57 3 -74 6 -29 6
-29 7 -16 33 17 32 20 236 3 247 -8 4 -8 9 0 17 18 18 14 232 -4 267 -15 29
-15 30 7 30 13 0 47 -3 76 -6z m1136 -49 c-16 -40 -20 -226 -4 -255 7 -13 7
-21 0 -25 -5 -3 -10 -42 -10 -86 0 -78 0 -79 25 -79 15 0 25 -6 25 -14 0 -8 5
-18 11 -22 8 -5 10 1 6 18 -5 17 -2 28 6 31 8 3 21 20 30 39 l17 33 0 -92 c0
-68 -3 -93 -12 -94 -80 -5 -238 -14 -238 -13 0 1 7 15 15 30 17 34 21 229 5
239 -7 4 -7 12 0 25 16 30 12 220 -5 254 -8 15 -15 30 -15 32 0 3 55 8 127 12
l32 2 -15 -35z m-222 -7 c17 -11 32 -35 38 -59 14 -51 14 -355 1 -406 -13 -46
-45 -80 -89 -93 -27 -7 -32 -6 -32 8 0 14 -2 14 -13 -2 -12 -17 -15 -17 -56 0
-58 23 -80 71 -81 174 0 42 -5 81 -11 87 -8 8 -8 13 0 17 7 4 11 43 11 94 0
104 22 162 69 186 36 19 68 21 74 4 4 -9 6 -7 6 3 1 21 45 14 83 -13z m-342
-3 c40 -21 55 -59 55 -141 0 -63 -3 -76 -24 -98 l-24 -25 22 -18 c28 -23 39
-74 31 -144 -7 -64 -30 -106 -66 -119 -14 -6 -72 -10 -129 -10 l-104 0 15 36
c12 28 14 60 10 133 -6 116 -6 101 0 232 4 83 2 115 -10 144 l-16 38 107 -7
c59 -4 119 -14 133 -21z"/>
<path d="M895 2480 c-3 -6 1 -7 9 -4 18 7 21 14 7 14 -6 0 -13 -4 -16 -10z"/>
<path d="M900 2442 c0 -12 0 -25 -1 -29 0 -4 4 -9 10 -11 5 -2 9 8 7 22 -3 33
-16 46 -16 18z"/>
<path d="M2042 2217 c-41 -42 -50 -57 -34 -57 16 0 92 71 92 86 0 23 -13 16
-58 -29z"/>
<path d="M2070 2185 c-24 -24 -41 -48 -37 -51 8 -9 101 68 99 81 -2 21 -20 13
-62 -30z"/>
<path d="M2102 2157 c-23 -23 -42 -46 -42 -50 0 -14 18 -6 43 19 15 15 31 23
38 18 7 -4 9 -3 5 4 -3 6 -2 13 4 17 12 7 14 35 2 35 -4 0 -27 -19 -50 -43z"/>
<path d="M1995 2099 c-11 -17 1 -21 15 -4 8 9 8 15 2 15 -6 0 -14 -5 -17 -11z"/>
<path d="M3399 1504 c-5 -15 -8 -29 -5 -31 2 -2 8 10 14 26 13 38 5 41 -9 5z"/>
<path d="M646 1417 c3 -10 9 -15 12 -12 3 3 0 11 -7 18 -10 9 -11 8 -5 -6z"/>
<path d="M676 1357 c3 -10 9 -15 12 -12 3 3 0 11 -7 18 -10 9 -11 8 -5 -6z"/>
<path d="M3325 1339 c-4 -6 -5 -12 -2 -15 2 -3 7 2 10 11 7 17 1 20 -8 4z"/>
<path d="M510 652 c0 -9 10 -23 21 -31 19 -11 21 -11 15 4 -3 9 -6 23 -6 31 0
8 -7 14 -15 14 -8 0 -15 -8 -15 -18z"/>
<path d="M3526 1024 c-4 -27 -9 -70 -11 -95 -1 -24 -6 -61 -10 -81 -7 -38 -7
-38 25 -38 l32 0 -7 78 c-4 44 -10 103 -14 133 l-7 54 -8 -51z"/>
<path d="M3440 766 c0 -2 7 -7 16 -10 8 -3 12 -2 9 4 -6 10 -25 14 -25 6z"/>
<path d="M3440 720 c0 -5 5 -10 10 -10 6 0 10 5 10 10 0 6 -4 10 -10 10 -5 0
-10 -4 -10 -10z"/>
<path d="M3624 658 c2 -7 -1 -20 -5 -30 -9 -16 12 -34 25 -21 11 11 6 24 -6
18 -7 -4 -2 4 12 16 24 21 24 22 3 17 -12 -3 -24 -2 -27 3 -2 5 -3 4 -2 -3z"/>
<path d="M3400 630 c0 -3 7 -13 14 -23 12 -16 14 -16 20 -1 10 26 7 33 -14 31
-11 -1 -20 -4 -20 -7z"/>
<path d="M3152 928 c5 -15 28 -23 28 -10 0 5 -7 13 -16 16 -10 4 -14 1 -12 -6z"/>
<path d="M3160 890 c0 -5 7 -7 15 -4 8 4 15 8 15 10 0 2 -7 4 -15 4 -8 0 -15
-4 -15 -10z"/>
<path d="M3025 840 c-3 -5 -1 -10 4 -10 6 0 11 5 11 10 0 6 -2 10 -4 10 -3 0
-8 -4 -11 -10z"/>
<path d="M3265 830 c-3 -5 -1 -10 4 -10 6 0 11 5 11 10 0 6 -2 10 -4 10 -3 0
-8 -4 -11 -10z"/>
<path d="M3040 789 c0 -5 5 -7 10 -4 6 3 10 8 10 11 0 2 -4 4 -10 4 -5 0 -10
-5 -10 -11z"/>
<path d="M3062 604 c-7 -8 -8 -14 -3 -14 10 0 25 19 20 25 -2 1 -10 -3 -17
-11z"/>
<path d="M3250 614 c0 -3 7 -12 15 -20 13 -13 15 -13 15 -1 0 8 -7 17 -15 21
-8 3 -15 3 -15 0z"/>
<path d="M3065 550 c3 -5 8 -10 11 -10 2 0 4 5 4 10 0 6 -5 10 -11 10 -5 0 -7
-4 -4 -10z"/>
<path d="M828 985 l-3 -94 25 6 c42 10 50 22 50 82 0 62 -19 101 -50 101 -17
0 -19 -10 -22 -95z"/>
<path d="M760 626 c0 -2 7 -9 15 -16 13 -11 14 -10 9 4 -5 14 -24 23 -24 12z"/>
<path d="M1105 610 c3 -5 8 -10 11 -10 2 0 4 5 4 10 0 6 -5 10 -11 10 -5 0 -7
-4 -4 -10z"/>
<path d="M2806 988 c-12 -18 -15 -60 -15 -188 0 -168 5 -190 40 -190 28 0 36
46 31 190 0 8 2 50 4 92 6 79 -5 118 -31 118 -8 0 -21 -10 -29 -22z"/>
<path d="M2913 755 c0 -8 4 -15 9 -15 4 0 8 7 8 15 0 8 -4 15 -8 15 -5 0 -9
-7 -9 -15z"/>
<path d="M1370 581 c0 -6 5 -13 10 -16 6 -3 10 1 10 9 0 9 -4 16 -10 16 -5 0
-10 -4 -10 -9z"/>
<path d="M2470 619 c0 -5 5 -7 10 -4 6 3 10 8 10 11 0 2 -4 4 -10 4 -5 0 -10
-5 -10 -11z"/>
<path d="M2626 537 c3 -10 9 -15 12 -12 3 3 0 11 -7 18 -10 9 -11 8 -5 -6z"/>
<path d="M2315 1010 c-3 -5 -1 -10 4 -10 6 0 11 5 11 10 0 6 -2 10 -4 10 -3 0
-8 -4 -11 -10z"/>
<path d="M2206 938 c-11 -18 -15 -59 -15 -180 0 -142 2 -158 20 -174 18 -16
20 -16 38 0 18 16 20 32 20 179 0 88 -5 169 -10 179 -13 25 -36 23 -53 -4z"/>
<path d="M2231 544 c0 -11 3 -14 6 -6 3 7 2 16 -1 19 -3 4 -6 -2 -5 -13z"/>
<path d="M1870 885 c0 -62 1 -65 25 -65 27 0 45 25 45 65 0 40 -18 65 -45 65
-24 0 -25 -3 -25 -65z"/>
<path d="M1975 740 c3 -5 8 -10 11 -10 2 0 4 5 4 10 0 6 -5 10 -11 10 -5 0 -7
-4 -4 -10z"/>
<path d="M1870 650 c0 -66 1 -70 23 -70 34 0 47 19 47 70 0 51 -13 70 -47 70
-22 0 -23 -4 -23 -70z"/>
<path d="M1823 665 c-19 -21 -16 -27 7 -13 11 7 20 16 20 20 0 12 -14 9 -27
-7z"/>
<path d="M1995 550 c3 -5 8 -10 11 -10 2 0 4 5 4 10 0 6 -5 10 -11 10 -5 0 -7
-4 -4 -10z"/>
</g>
</svg>
